<?xml version="1.0" standalone="no"?>
<!DOCTYPE svg PUBLIC "-//W3C//DTD SVG 20010904//EN"
 "http://www.w3.org/TR/2001/REC-SVG-20010904/DTD/svg10.dtd">
<svg version="1.0" xmlns="http://www.w3.org/2000/svg"
 width="300.000000pt" height="177.000000pt" viewBox="0 0 300.000000 177.000000"
 preserveAspectRatio="xMidYMid meet">
<metadata>
Created by potrace 1.10, written by Peter Selinger 2001-2011
</metadata>
<g transform="translate(0.000000,177.000000) scale(0.100000,-0.100000)"
fill="#000000" stroke="none">
<path d="M1436 1647 c-40 -32 -42 -80 -6 -154 61 -125 142 -203 211 -203 29 0
51 -9 85 -35 47 -36 90 -53 102 -40 4 4 -2 12 -12 19 -100 59 -111 70 -114
111 -2 27 -18 60 -48 105 -81 118 -139 193 -145 189 -4 -2 -15 4 -26 13 -18
16 -20 16 -47 -5z m83 -46 c23 -17 29 -26 20 -31 -7 -5 -18 -6 -26 -3 -7 3
-13 0 -13 -7 0 -6 -4 -8 -10 -5 -5 3 -21 -5 -34 -20 l-24 -25 -4 31 c-6 40 16
86 40 84 10 0 33 -12 51 -24z m52 -109 c-14 -8 -33 -15 -41 -16 -8 -2 -15 -7
-16 -12 -2 -23 -17 -42 -29 -38 -16 7 -25 47 -13 67 10 19 67 49 79 41 5 -3 9
0 9 7 0 6 8 1 19 -12 18 -23 18 -23 -8 -37z m81 -60 c11 -13 10 -15 -4 -9 -10
3 -18 2 -18 -4 0 -6 -5 -7 -11 -4 -12 8 -50 -29 -47 -46 5 -19 -18 -21 -36 -4
-21 22 -20 28 9 62 21 24 32 28 60 25 19 -2 40 -11 47 -20z m5 -29 c-3 -5 1
-13 8 -20 11 -10 15 -10 18 0 3 7 6 6 6 -4 1 -9 -6 -22 -14 -29 -13 -11 -14
-10 -10 3 4 8 2 18 -4 22 -7 3 -11 -2 -11 -14 0 -12 -5 -21 -11 -21 -6 0 -9
-7 -5 -15 5 -14 1 -15 -31 -15 -19 0 -7 38 21 68 28 30 43 41 33 25z m97 -140
c26 -18 44 -33 38 -33 -12 0 -103 67 -114 84 -5 7 -8 6 -8 -3 0 -8 -3 -11 -6
-8 -4 4 -1 13 6 22 11 14 14 13 24 -7 6 -13 33 -38 60 -55z"/>
<path d="M2059 1641 c-18 -17 -37 -27 -45 -24 -16 6 -43 -18 -63 -55 -6 -12
-17 -19 -25 -16 -8 3 -21 -5 -30 -18 -16 -22 -18 -22 -44 -8 -15 8 -38 14 -50
12 -20 -3 -23 -8 -17 -30 9 -35 18 -40 68 -36 28 2 49 -3 69 -18 28 -19 58
-19 58 1 0 5 12 13 28 18 22 8 31 6 52 -14 26 -24 54 -30 65 -13 4 6 14 8 23
6 10 -3 24 -1 32 4 9 5 19 5 27 -2 10 -8 25 -8 55 1 29 9 44 9 51 2 14 -14 55
-14 95 0 34 11 43 27 36 57 -5 15 -13 19 -45 17 -21 -1 -45 -8 -53 -14 -20
-17 -30 3 -16 29 15 28 -2 48 -37 44 -18 -2 -35 6 -55 27 -34 33 -38 35 -38
13 0 -10 -7 -14 -17 -12 -10 2 -17 10 -15 16 1 7 -5 12 -13 12 -9 0 -18 7 -21
15 -9 24 -42 18 -75 -14z m91 -21 c11 -11 26 -20 33 -21 31 -3 44 -6 75 -19
17 -8 35 -22 38 -32 3 -10 10 -16 15 -13 5 3 6 -1 2 -10 -8 -23 16 -36 40 -22
15 9 21 9 24 0 3 -7 11 -13 20 -13 8 0 13 -6 10 -12 -2 -7 -11 -12 -20 -12 -9
1 -14 -2 -11 -7 8 -13 -10 -11 -25 4 -11 10 -12 9 -6 -3 6 -10 1 -9 -13 4 -12
10 -28 16 -37 12 -9 -3 -24 -2 -34 4 -19 10 -64 3 -56 -9 2 -4 -10 -7 -28 -5
-18 1 -41 -4 -52 -11 -17 -11 -24 -10 -42 5 -12 10 -19 20 -16 24 4 3 -1 6 -9
6 -9 0 -18 7 -22 15 -3 8 -11 15 -17 15 -9 0 -9 -4 0 -14 9 -11 9 -16 0 -22
-8 -4 -9 -3 -5 4 4 7 2 12 -3 12 -6 0 -11 -4 -11 -10 0 -5 -7 -10 -15 -10 -9
0 -12 6 -9 15 10 26 -4 19 -51 -23 -8 -7 -16 -10 -16 -5 -7 46 -7 63 -1 64 34
3 59 11 67 22 6 6 20 12 33 13 17 0 21 -4 16 -18 -3 -10 -1 -18 5 -18 6 0 11
7 11 15 0 8 7 15 15 15 8 0 15 4 15 9 0 5 -9 7 -19 4 -15 -4 -20 0 -18 16 1
12 7 21 13 21 6 0 14 10 17 21 5 18 11 21 36 16 17 -4 40 -16 51 -27z m-130
-25 c0 -8 -4 -15 -9 -15 -13 0 -22 16 -14 24 11 11 23 6 23 -9z m-139 -95 c5
0 9 -4 9 -10 0 -5 -11 -10 -25 -10 -16 0 -25 6 -25 16 0 11 5 14 16 10 9 -3
20 -6 25 -6z m87 -38 c2 -7 -3 -12 -12 -12 -9 0 -16 7 -16 16 0 17 22 14 28
-4z m282 3 c0 -9 -6 -12 -15 -9 -8 4 -12 10 -9 15 8 14 24 10 24 -6z"/>
<path d="M2080 1620 c-13 -8 -12 -11 5 -24 11 -8 22 -12 25 -9 3 3 -1 8 -7 10
-7 3 -13 9 -13 14 0 6 5 7 10 4 6 -3 10 -1 10 4 0 13 -10 14 -30 1z"/>
<path d="M2138 1584 c18 -8 4 -24 -21 -24 -13 0 -17 -3 -11 -8 6 -4 13 -15 17
-25 9 -25 38 -18 56 15 18 31 16 33 -24 41 -16 4 -24 4 -17 1z m35 -20 c-7 -3
-9 -12 -6 -20 3 -9 -2 -14 -16 -14 -12 0 -21 4 -21 10 0 10 30 30 45 29 6 0 5
-3 -2 -5z"/>
<path d="M2206 1549 c6 -11 44 -12 44 -1 0 4 -11 8 -25 8 -14 1 -22 -2 -19 -7z"/>
<path d="M2240 1515 c0 -8 5 -15 10 -15 6 0 10 7 10 15 0 8 -4 15 -10 15 -5 0
-10 -7 -10 -15z"/>
<path d="M2165 1499 c-10 -15 3 -25 16 -12 7 7 7 13 1 17 -6 3 -14 1 -17 -5z"/>
<path d="M1111 1637 c-6 -16 -9 -33 -6 -38 10 -15 34 -113 41 -166 7 -58 -13
-144 -26 -108 -4 11 -6 23 -3 27 3 7 -26 72 -63 141 -24 43 -11 55 15 14 41
-67 52 -43 26 56 -18 69 -18 70 -5 62 6 -3 10 -1 10 4 0 6 -7 11 -15 11 -18 0
-18 -9 -1 -82 8 -32 12 -58 9 -58 -3 0 -14 11 -25 25 -47 60 -52 6 -7 -74 23
-41 33 -73 38 -125 l6 -71 62 -3 c90 -4 103 5 103 78 0 35 8 76 19 104 11 24
25 72 32 106 l12 61 -33 29 c-36 32 -50 37 -50 19 0 -8 -4 -8 -15 1 -16 14
-35 6 -35 -16 0 -19 -17 -18 -28 2 -7 12 -11 13 -17 5 -5 -9 -11 -7 -20 6 -13
17 -14 16 -24 -10z m156 -59 c-4 -64 -4 -68 5 -28 5 25 14 54 18 65 8 18 9 18
9 -5 0 -14 -3 -42 -8 -62 -5 -22 -5 -36 0 -32 5 3 9 15 10 27 0 12 5 31 10 42
7 15 8 9 4 -20 -5 -36 -28 -100 -59 -165 -8 -16 -9 -40 -4 -70 9 -50 1 -60
-46 -60 -28 0 -66 24 -66 42 0 4 7 8 16 8 14 0 14 3 4 15 -10 12 -10 15 3 15
10 0 14 6 11 14 -3 7 -7 33 -9 57 -14 136 -15 153 -6 134 5 -11 10 -31 10 -45
1 -23 2 -23 18 -7 11 10 18 38 21 77 2 33 9 60 15 60 6 0 8 -25 4 -67 -6 -74
6 -66 18 12 4 28 9 53 12 58 12 20 15 0 10 -65z m-128 39 c5 -13 6 -39 1 -58
-7 -30 -8 -31 -9 -8 -1 15 -4 41 -7 58 -8 36 3 41 15 8z m42 -42 c2 -30 2 -30
9 5 7 34 7 34 8 5 0 -16 -3 -41 -7 -55 -6 -23 -8 -20 -19 22 -7 26 -12 55 -12
65 0 31 19 -7 21 -42z m-51 -290 c0 -8 8 -15 18 -16 11 0 12 -2 4 -6 -14 -5
-42 14 -42 28 0 5 5 9 10 9 6 0 10 -7 10 -15z"/>
<path d="M2704 1641 c3 -5 -2 -8 -12 -7 -12 1 -17 -6 -17 -24 0 -14 5 -24 11
-23 7 1 10 -6 7 -16 -3 -11 0 -28 6 -39 9 -18 5 -24 -39 -52 -28 -18 -50 -35
-51 -39 0 -3 -1 -85 -2 -181 l-2 -175 27 -27 c21 -23 35 -28 73 -28 51 0 99
20 109 45 3 9 6 114 6 234 0 170 -3 221 -14 236 -8 11 -12 24 -10 30 5 12 -68
75 -86 75 -6 0 -9 -4 -6 -9z m39 -37 c-3 -8 -9 -14 -14 -14 -5 0 -9 -5 -9 -10
0 -6 13 -4 30 5 17 9 30 13 30 10 0 -15 -3 -20 -11 -17 -5 1 -8 -3 -6 -9 1 -6
-4 -14 -12 -17 -9 -3 -11 0 -6 9 5 8 4 10 0 6 -15 -13 -14 -37 0 -37 8 0 19 8
24 18 17 28 31 -4 31 -73 0 -33 3 -70 6 -82 6 -22 4 -22 -87 -22 -52 1 -97 3
-100 4 -3 2 -4 18 -1 35 3 25 16 39 58 67 58 38 64 47 37 57 -12 5 -13 10 -5
18 8 8 8 17 0 31 -8 16 -7 23 6 32 8 7 12 16 8 21 -4 4 1 3 10 -5 9 -7 14 -19
11 -27z m-37 -261 c28 -3 59 -1 70 5 18 10 19 6 17 -85 l-1 -95 -84 0 c-81 -1
-83 -1 -86 23 -2 19 -1 21 7 9 8 -11 11 5 11 58 0 46 -4 71 -10 67 -5 -3 -10
4 -10 15 0 17 4 21 18 15 9 -4 40 -9 68 -12z m99 -223 c-1 -41 -9 -56 -37 -71
-16 -8 -19 -8 -13 1 6 9 -7 11 -48 8 -36 -2 -53 0 -47 7 17 16 12 75 -6 75
-11 0 -15 -9 -14 -32 3 -48 1 -55 -10 -38 -5 8 -10 31 -10 50 l0 35 93 0 93 0
-1 -35z"/>
<path d="M2668 1457 c-24 -9 -28 -16 -27 -46 l2 -36 7 35 7 35 5 -35 5 -35 1
38 c2 36 3 37 42 37 39 0 40 -1 40 -36 0 -28 3 -35 18 -32 27 5 28 49 0 70
-26 20 -59 21 -100 5z m112 -42 c0 -14 -4 -25 -10 -25 -5 0 -10 11 -10 25 0
14 5 25 10 25 6 0 10 -11 10 -25z"/>
<path d="M2691 1408 c2 -31 2 -31 6 -5 2 15 8 27 13 27 5 0 11 -12 13 -27 4
-26 4 -26 6 5 1 26 -3 32 -19 32 -16 0 -20 -6 -19 -32z"/>
<path d="M2703 1133 c-15 -5 -18 -63 -3 -63 5 0 7 7 4 15 -4 8 -3 23 2 33 6
13 9 10 14 -18 l7 -35 2 32 c1 34 -6 43 -26 36z"/>
<path d="M2750 1106 c0 -38 17 -57 31 -35 5 8 9 26 9 42 0 20 -5 27 -20 27
-16 0 -20 -7 -20 -34z m30 -1 c0 -14 -4 -25 -10 -25 -5 0 -10 11 -10 25 0 14
5 25 10 25 6 0 10 -11 10 -25z"/>
<path d="M179 1616 c-5 -12 -12 -118 -17 -236 -10 -247 -12 -240 76 -240 99 0
95 -11 87 243 -4 122 -11 229 -16 238 -6 12 -23 16 -64 16 -48 0 -58 -3 -66
-21z m121 -26 c0 -19 3 -45 6 -58 6 -22 5 -23 -61 -20 l-67 2 6 29 c3 16 6 41
6 56 0 26 2 27 55 27 l55 0 0 -36z m2 -190 c-2 -52 -9 -100 -14 -107 -5 -7
-30 -22 -54 -33 -52 -26 -56 -35 -11 -26 17 3 42 18 54 33 12 15 24 25 27 23
2 -3 6 -30 7 -60 l3 -55 -68 0 -68 0 -2 97 c0 53 3 91 7 85 5 -7 7 22 4 63
l-4 75 62 0 62 0 -5 -95z"/>
<path d="M200 1611 c0 -6 7 -14 15 -17 8 -4 15 -17 15 -31 0 -15 5 -23 13 -20
6 2 12 11 12 19 0 8 7 23 15 33 14 17 14 17 -7 5 -19 -12 -24 -12 -42 4 -13
11 -21 14 -21 7z"/>
<path d="M255 1400 c-10 -11 -26 -22 -36 -25 -21 -7 -26 -25 -7 -25 15 0 78
49 78 61 0 15 -16 10 -35 -11z"/>
<path d="M651 1610 c-33 -24 -41 -35 -36 -51 5 -16 0 -23 -24 -32 -17 -6 -31
-18 -31 -26 0 -24 47 -97 74 -115 31 -20 163 -16 219 8 35 14 37 17 37 60 0
26 5 46 10 46 33 0 -15 68 -50 70 -10 1 -7 5 8 12 25 13 29 43 6 52 -9 3 -51
6 -93 6 -71 0 -82 -3 -120 -30z m78 -10 c6 0 -1 -18 -15 -40 l-27 -41 -29 28
-29 28 33 28 c29 24 34 26 44 12 6 -8 16 -15 23 -15z m134 15 c8 -18 2 -22
-56 -30 -48 -7 -78 -33 -76 -65 0 -8 5 -3 10 12 13 35 73 47 116 24 28 -16 28
-16 -30 -14 -33 1 -62 -3 -69 -10 -9 -9 -2 -12 33 -13 24 -1 55 -4 69 -8 20
-6 12 -9 -37 -15 -34 -4 -71 -5 -84 -1 -14 5 -19 4 -15 -4 4 -6 2 -11 -4 -11
-6 0 -13 7 -16 15 -4 8 -10 12 -16 9 -5 -3 -18 2 -28 11 -12 11 -20 13 -25 6
-3 -6 -1 -11 5 -11 14 0 8 -25 -6 -25 -5 -1 -19 -6 -31 -13 -19 -11 -22 -10
-20 7 1 12 6 17 17 13 8 -3 12 -1 8 3 -5 5 1 15 12 22 12 8 17 19 13 26 -4 6
6 1 22 -11 l28 -22 23 21 c13 12 26 30 30 41 3 12 16 18 37 19 18 1 46 5 62
10 22 6 14 7 -32 5 -45 -3 -65 0 -74 10 -10 12 0 14 59 14 52 0 71 -4 75 -15z
m-184 -134 c8 -5 11 -16 6 -30 -3 -12 -10 -19 -14 -17 -4 3 -13 -4 -20 -16 -7
-11 -8 -17 -2 -13 6 3 11 0 12 -7 0 -7 10 7 23 32 12 27 29 46 39 47 16 1 18
-5 13 -40 -4 -31 -3 -36 3 -17 8 21 9 22 10 5 1 -23 -9 -39 -27 -43 -9 -1 -11
9 -6 40 l5 43 -20 -42 c-22 -47 -28 -50 -56 -29 -18 13 -18 14 4 45 13 18 20
35 17 38 -3 4 -6 2 -6 -4 0 -15 -49 -45 -61 -37 -7 4 -4 13 7 25 9 10 20 16
25 14 4 -3 10 -1 14 5 8 12 16 12 34 1z m181 -38 c0 -25 -2 -44 -4 -42 -8 10
-13 89 -5 89 5 0 9 -21 9 -47z m17 0 c-3 -10 -5 -2 -5 17 0 19 2 27 5 18 2
-10 2 -26 0 -35z m-47 28 c0 -6 -4 -13 -10 -16 -5 -3 -10 -19 -10 -36 0 -16
-4 -29 -10 -29 -5 0 -10 20 -10 45 0 38 3 45 20 45 11 0 20 -4 20 -9z m-60
-43 c0 -49 -5 -47 -14 5 -4 23 -3 37 4 37 5 0 10 -19 10 -42z m61 -31 c-13
-13 -15 11 -4 40 7 16 8 15 11 -6 2 -13 -1 -28 -7 -34z"/>
<path d="M2352 1378 c-7 -7 -12 -28 -12 -48 0 -27 -8 -43 -30 -65 -25 -24 -30
-36 -30 -79 0 -30 6 -56 15 -66 14 -15 13 -22 -10 -71 -16 -36 -25 -72 -25
-106 0 -70 28 -93 112 -93 53 0 63 3 90 31 28 27 30 34 24 74 -5 38 -49 145
-60 145 -11 0 1 -41 21 -73 19 -30 23 -49 21 -90 l-3 -52 -35 2 c-32 1 -33 0
-16 -13 25 -18 9 -18 -43 1 -23 8 -45 14 -49 13 -4 -1 -17 1 -29 6 -19 6 -23
15 -23 52 0 41 12 80 29 94 3 3 12 17 20 33 13 24 19 26 48 21 18 -3 39 -2 46
4 6 6 17 12 22 14 6 1 9 9 9 15 -1 7 2 11 6 8 12 -7 18 56 9 90 -5 16 -19 37
-31 46 -16 12 -23 29 -24 59 -3 52 -26 74 -52 48z m36 -60 c-3 -7 -11 -13 -18
-13 -7 0 -15 6 -17 13 -3 7 4 12 17 12 13 0 20 -5 18 -12z m2 -30 c0 -4 -10
-8 -22 -9 -20 -1 -19 -2 6 -9 15 -5 38 -17 50 -27 17 -14 16 -12 -4 12 l-25
30 28 -24 c29 -26 34 -54 15 -98 -6 -15 -11 -31 -10 -35 1 -4 -6 -4 -15 -1
-10 4 -14 2 -10 -4 4 -6 -3 -8 -17 -6 -13 3 -33 0 -43 -6 -24 -12 -45 3 -36
27 4 8 2 13 -3 10 -5 -4 -8 15 -7 43 1 40 6 55 30 77 26 25 63 37 63 20z"/>
<path d="M1950 1324 c0 -35 -6 -54 -22 -71 -23 -24 -29 -57 -44 -223 -8 -90
10 -144 51 -160 35 -13 114 -13 153 1 42 15 57 67 47 169 -11 129 -24 171 -63
210 -29 28 -36 43 -37 75 0 40 0 40 -42 43 l-43 3 0 -47z m80 6 c0 -28 -2 -30
-37 -30 -28 0 -34 3 -23 10 12 8 13 13 2 30 -11 19 -10 20 23 20 32 0 35 -2
35 -30z m-5 -58 c0 -7 3 -11 6 -9 4 1 17 -7 29 -18 42 -37 52 -79 52 -217 0
-72 -3 -132 -6 -135 -9 -9 -170 -9 -183 0 -6 5 -9 16 -6 24 4 10 2 14 -4 10
-6 -4 -8 4 -6 21 4 22 2 24 -7 12 -9 -12 -10 -9 -6 15 3 17 8 63 11 103 5 83
22 147 42 163 7 6 13 19 13 28 0 12 9 16 32 15 18 0 33 -6 33 -12z m8 -399
c-13 -2 -33 -2 -45 0 -13 2 -3 4 22 4 25 0 35 -2 23 -4z"/>
<path d="M2007 1344 c-4 -4 -7 -14 -7 -23 0 -11 3 -12 11 -4 6 6 10 16 7 23
-2 6 -7 8 -11 4z"/>
<path d="M2019 1206 c-9 -18 -8 -33 0 -57 14 -40 6 -51 -10 -15 -30 66 -89 -5
-89 -107 0 -99 40 -140 120 -122 38 8 50 31 50 95 0 44 -4 55 -30 79 -21 19
-27 30 -20 37 8 8 8 19 0 38 -13 34 -13 56 0 56 5 0 15 -19 22 -42 9 -32 10
-42 0 -46 -17 -5 -15 -22 2 -22 31 0 30 76 -2 113 -20 23 -30 22 -43 -7z m-15
-83 c8 -16 28 -38 45 -51 27 -20 31 -28 31 -72 0 -59 -24 -90 -69 -90 -52 0
-74 29 -79 102 -7 108 37 177 72 111z"/>
<path d="M1960 1070 c0 -5 17 -10 38 -10 27 0 33 3 22 10 -20 13 -60 13 -60 0z"/>
<path d="M1970 1025 c0 -8 -8 -15 -17 -16 -11 0 -13 -3 -5 -6 6 -2 12 -11 12
-19 0 -8 7 -14 16 -14 12 0 14 3 6 13 -15 17 1 39 21 31 18 -7 24 -34 7 -34
-5 0 -10 7 -10 16 0 8 -5 12 -10 9 -8 -5 -7 -11 1 -21 16 -20 31 -17 51 10 16
22 16 25 1 38 -12 10 -17 10 -20 1 -3 -8 -12 -9 -29 -3 -19 7 -24 6 -24 -5z"/>
<path d="M1983 963 c-26 -9 -12 -23 23 -23 22 0 33 4 29 11 -4 6 -13 8 -20 5
-8 -3 -15 -1 -17 3 -2 4 -9 6 -15 4z"/>
<path d="M675 1307 c-4 -10 -5 -21 -1 -24 10 -10 18 4 13 24 -4 17 -4 17 -12
0z"/>
<path d="M510 1256 c0 -19 4 -37 10 -41 15 -9 60 6 54 19 -3 6 2 2 12 -9 14
-17 16 -18 10 -2 -4 14 2 22 30 33 57 24 34 25 -29 2 -31 -11 -54 -25 -50 -31
3 -5 0 -7 -8 -5 -8 3 -13 16 -11 31 1 14 -2 28 -8 32 -6 4 -10 -7 -10 -29z"/>
<path d="M439 1225 c-3 -27 -2 -55 3 -61 5 -7 8 -16 7 -20 -4 -25 4 -40 25
-50 20 -9 23 -9 19 2 -3 9 2 14 12 14 11 0 15 -5 12 -14 -7 -18 17 -28 32 -13
21 21 31 -13 31 -100 0 -82 0 -83 25 -83 25 0 25 1 25 81 0 45 4 78 9 75 5 -4
7 3 4 14 -4 16 -2 19 12 13 12 -4 16 -3 12 4 -4 6 0 14 9 17 28 11 38 6 18 -9
-16 -12 -17 -14 -2 -15 9 0 20 9 23 20 3 11 10 20 15 20 5 0 7 -8 3 -17 -3
-10 -3 -15 1 -11 4 3 9 14 11 25 1 10 7 17 12 16 5 -1 9 29 9 65 1 39 -1 49
-3 25 l-4 -43 -154 0 -154 0 -3 48 -3 47 -6 -50z m298 -82 c3 -8 -13 -17 -42
-24 -70 -18 -88 -46 -82 -137 4 -61 3 -71 -8 -62 -10 8 -14 32 -12 79 3 88
-10 104 -96 125 -19 4 -26 3 -22 -4 3 -5 2 -10 -3 -10 -5 0 -9 11 -9 25 l0 26
135 -3 c95 -2 137 -7 139 -15z"/>
<path d="M553 1143 c32 -2 81 -2 110 0 29 2 3 3 -58 3 -60 0 -84 -1 -52 -3z"/>
<path d="M651 1234 c-18 -8 -31 -17 -29 -20 3 -2 25 4 49 15 24 11 37 20 29
19 -8 0 -30 -6 -49 -14z"/>
<path d="M1055 1203 c-11 -3 -31 -10 -45 -16 -14 -6 -30 -10 -35 -9 -6 1 -11
-7 -12 -18 -1 -11 2 -20 8 -20 5 0 9 -4 9 -10 0 -5 -7 -10 -15 -10 -8 0 -15 6
-15 14 0 18 -25 27 -38 14 -6 -6 -8 -17 -5 -24 3 -8 -1 -14 -10 -14 -12 0 -13
-5 -3 -35 11 -32 53 -75 73 -75 4 0 0 5 -9 11 -10 5 -18 15 -18 22 0 8 2 9 8
1 4 -6 14 -13 22 -16 8 -2 15 -13 15 -23 0 -11 10 -25 23 -31 13 -6 38 -25 55
-41 18 -17 39 -33 49 -36 20 -7 96 40 126 78 33 41 28 69 -19 112 -22 21 -55
59 -71 85 -31 48 -43 53 -93 41z m53 -20 c10 -10 24 -30 31 -45 8 -15 29 -42
49 -60 19 -18 31 -26 27 -18 -8 13 -7 13 8 1 25 -20 21 -29 -20 -47 -42 -17
-85 -25 -78 -14 3 4 -17 27 -43 51 -26 24 -46 47 -45 51 1 3 -4 12 -12 18 -8
7 -15 20 -15 29 0 13 -2 13 -9 2 -5 -8 -11 -9 -15 -3 -8 13 19 23 30 12 5 -5
15 -5 24 0 12 8 11 10 -5 10 -13 1 -8 6 15 14 19 8 36 14 38 15 2 0 11 -7 20
-16z m-103 -84 c3 -10 34 -46 67 -81 34 -35 63 -68 64 -75 3 -18 -23 -36 -39
-26 -29 17 -77 62 -77 72 0 6 -8 8 -17 4 -10 -3 -15 -3 -11 2 4 4 -4 24 -17
44 -14 19 -25 44 -25 55 0 16 -2 16 -16 5 -14 -11 -14 -13 1 -21 17 -10 11
-28 -9 -28 -20 0 -18 58 2 62 46 9 72 4 77 -13z m245 -88 c0 -5 -7 -17 -16
-25 -8 -9 -12 -16 -8 -16 3 0 1 -7 -6 -15 -11 -13 -15 -13 -21 -3 -6 10 -9 10
-9 1 0 -7 -9 -17 -20 -23 -17 -9 -20 -8 -20 8 0 11 19 31 48 50 54 36 52 35
52 23z"/>
<path d="M1531 1178 c-24 -8 -29 -38 -7 -38 22 0 25 -22 8 -52 -23 -39 -7 -46
28 -13 35 33 43 30 31 -11 -5 -16 -9 -63 -10 -104 -1 -73 -2 -76 -41 -115
l-41 -41 16 -75 c22 -106 37 -123 112 -127 73 -3 86 7 107 81 33 116 33 123
-13 163 -41 37 -41 38 -41 109 0 40 -5 87 -12 105 -9 28 -8 35 5 45 21 15 22
39 1 56 -20 16 -115 28 -143 17z m141 -24 c10 -6 11 -34 1 -35 -5 0 -16 -2
-26 -4 -9 -2 -15 1 -12 5 7 11 -11 22 -48 29 -17 4 -32 11 -34 17 -4 11 99 0
119 -12z m-66 -29 c18 -14 18 -14 -6 -15 -14 0 -34 -12 -48 -27 -20 -24 -21
-25 -8 -3 9 13 16 32 16 42 0 22 19 23 46 3z m44 -35 c0 -5 -6 -10 -14 -10 -8
0 -18 5 -21 10 -3 6 3 10 14 10 12 0 21 -4 21 -10z m10 -35 c0 -10 -10 -15
-30 -15 -20 0 -30 5 -30 15 0 10 10 15 30 15 20 0 30 -5 30 -15z m-42 -96 c2
-35 8 -68 14 -74 8 -7 9 -5 5 8 -10 28 2 20 58 -37 45 -45 52 -58 48 -82 -3
-16 -10 -34 -15 -41 -5 -6 -10 -27 -11 -46 -1 -19 -6 -33 -10 -30 -5 3 -7 -3
-5 -13 3 -17 -4 -19 -68 -19 -40 0 -71 4 -71 10 -1 23 -28 110 -36 116 -15 10
-3 74 13 75 8 0 29 6 45 13 39 16 92 7 123 -21 16 -15 23 -18 20 -8 -4 15 -84
59 -102 56 -6 -1 -17 -5 -24 -10 -7 -4 -16 -5 -20 -1 -3 3 -1 9 5 13 7 5 10
22 8 42 -3 20 0 37 8 42 8 5 9 8 1 8 -7 0 -12 16 -12 36 0 63 23 32 26 -37z
m52 44 c0 -22 -2 -25 -10 -13 -7 11 -10 6 -10 -22 0 -20 -5 -40 -11 -43 -15
-10 0 87 15 97 16 11 16 11 16 -19z m0 -74 c0 -16 -4 -28 -9 -25 -8 5 -3 56 5
56 2 0 4 -14 4 -31z"/>
<path d="M1620 735 c0 -57 4 -95 10 -95 6 0 10 38 10 95 0 57 -4 95 -10 95 -6
0 -10 -38 -10 -95z"/>
<path d="M2337 1058 c-36 -28 -50 -125 -22 -148 20 -17 90 -16 111 1 21 17 13
112 -12 140 -20 22 -53 25 -77 7z m77 -26 c23 -85 12 -113 -48 -115 -53 -3
-65 18 -46 75 21 60 81 86 94 40z"/>
<path d="M1348 1043 c-10 -2 -18 -8 -18 -13 0 -19 53 -205 59 -210 4 -3 17
-43 29 -90 12 -47 47 -179 76 -295 30 -115 53 -211 51 -213 -1 -2 -37 -11 -79
-21 -41 -10 -83 -24 -91 -31 -14 -12 -13 -15 6 -36 12 -12 27 -20 35 -17 8 3
17 -2 20 -12 6 -14 16 -16 61 -11 29 3 58 8 64 11 6 4 25 9 42 12 18 3 50 11
72 18 22 7 55 16 72 20 32 6 32 7 16 31 -26 40 -84 65 -124 54 -47 -14 -44
-15 -57 33 -6 23 -40 150 -76 282 -36 132 -68 258 -71 280 -8 61 -51 209 -61
211 -5 1 -17 0 -26 -3z m68 -199 c-10 -25 -26 -15 -26 17 0 40 -28 137 -42
146 -8 4 -5 9 8 13 17 6 22 -2 42 -77 13 -47 21 -91 18 -99z m18 -74 l6 -35
-15 30 c-16 34 -20 64 -6 50 5 -6 12 -26 15 -45z m25 -90 c0 -9 -4 -8 -9 5 -5
11 -9 27 -9 35 0 9 4 8 9 -5 5 -11 9 -27 9 -35z m30 -110 c0 -9 -4 -8 -9 5 -5
11 -9 27 -9 35 0 9 4 8 9 -5 5 -11 9 -27 9 -35z m45 -170 c4 -24 3 -29 -3 -15
-4 11 -11 36 -15 55 -4 24 -3 29 3 15 4 -11 11 -36 15 -55z m40 -134 c19 -63
19 -66 7 -66 -5 0 -14 20 -20 44 -6 24 -13 51 -17 60 -3 9 -1 16 4 16 6 0 18
-24 26 -54z m127 -48 c22 -6 39 -14 39 -18 0 -10 -108 -33 -120 -25 -5 3 -10
2 -10 -2 0 -5 -31 -17 -70 -26 -68 -16 -70 -16 -107 5 l-37 22 34 9 c25 6 43
5 67 -7 40 -19 58 -21 24 -2 l-24 13 29 7 c17 5 30 3 32 -3 4 -11 34 -3 44 13
5 8 17 7 40 -1 l33 -13 -25 20 c-22 17 -23 20 -6 20 10 0 36 -5 57 -12z"/>
<path d="M187 647 l6 -353 -44 -9 c-44 -10 -44 -10 -44 -55 0 -40 3 -46 42
-73 41 -29 44 -30 115 -21 72 9 73 9 96 -18 28 -33 37 -35 39 -7 1 14 -3 19
-13 15 -8 -3 -14 -1 -14 5 0 6 -4 7 -10 4 -6 -3 -10 -1 -10 5 0 7 7 10 15 6 8
-3 15 -1 15 4 0 5 7 7 16 3 9 -3 14 -15 12 -32 -3 -24 -1 -26 32 -23 83 9 150
30 150 48 0 8 -4 13 -9 10 -5 -4 -7 2 -4 13 7 27 -43 63 -81 59 l-30 -3 -72
240 c-39 132 -79 272 -88 310 -23 91 -38 121 -59 117 -14 -2 -17 6 -17 53 0
52 -2 55 -24 55 l-24 0 5 -353z m33 258 c0 -53 -4 -75 -12 -75 -9 0 -13 22
-13 75 0 53 4 75 13 75 8 0 12 -22 12 -75z m64 -87 c9 -35 18 -72 20 -83 2
-11 7 -33 10 -50 3 -16 3 -23 0 -15 -4 8 -12 29 -19 45 -7 17 -16 46 -19 65
-3 19 -12 47 -20 62 -13 25 -12 38 4 38 4 0 15 -28 24 -62z m-5 -103 c6 -11
40 -119 76 -240 36 -121 68 -227 71 -236 2 -10 -2 -19 -12 -23 -11 -4 -32 8
-66 40 -44 41 -53 46 -89 42 l-39 -4 0 208 c0 155 3 208 12 208 9 0 9 3 0 12
-13 13 -16 68 -5 108 6 22 9 17 25 -35 9 -33 22 -69 27 -80z m-67 43 c2 -20 0
-34 -4 -32 -4 3 -7 26 -7 52 1 49 5 42 11 -20z m-5 -125 c-2 -16 -4 -3 -4 27
0 30 2 43 4 28 2 -16 2 -40 0 -55z m0 -280 c-2 -21 -4 -6 -4 32 0 39 2 55 4
38 2 -18 2 -50 0 -70z m237 -112 c-7 -8 -11 4 -17 44 l-6 40 13 -40 c7 -22 12
-42 10 -44z m-104 4 c39 -40 32 -47 -12 -10 -35 30 -98 34 -155 10 -29 -12
-38 -13 -44 -3 -16 25 15 34 117 37 56 1 62 -1 94 -34z m-25 -17 c16 -7 24
-17 20 -26 -3 -7 -5 -20 -5 -27 0 -8 -16 -15 -42 -18 -24 -2 -52 -7 -63 -11
-16 -5 -26 2 -45 31 -14 21 -26 41 -28 45 -8 17 127 23 163 6z m-164 -40 l34
-42 -38 29 c-20 17 -37 36 -37 43 0 18 4 16 41 -30z m309 26 c0 -8 -4 -13 -9
-9 -5 3 -12 1 -16 -5 -3 -5 3 -10 14 -10 12 0 21 4 21 9 0 18 39 22 70 6 41
-21 38 -28 -12 -21 -32 4 -38 3 -23 -4 15 -7 5 -8 -35 -5 -42 3 -48 2 -25 -4
24 -7 18 -8 -27 -6 -31 2 -61 6 -67 10 -22 13 -10 23 36 28 26 3 49 10 51 16
6 17 22 13 22 -5z m96 -62 c0 -10 -6 -19 -13 -19 -14 0 -18 19 -6 30 11 12 19
8 19 -11z m-36 -2 c0 -4 -6 -13 -14 -19 -11 -9 -15 -9 -19 1 -4 10 -8 10 -16
-2 -6 -8 -11 -11 -11 -6 0 5 -6 3 -14 -3 -10 -8 -16 -9 -21 -1 -7 12 3 32 14
26 4 -3 13 -1 20 3 17 11 61 11 61 1z"/>
<path d="M2619 913 c-29 -27 -43 -50 -45 -69 -2 -34 -61 -205 -98 -284 -14
-30 -27 -69 -31 -87 -8 -46 -85 -262 -108 -300 -16 -28 -23 -32 -57 -30 -38 1
-70 -15 -70 -37 0 -6 41 -24 91 -39 90 -27 91 -28 127 -10 45 23 44 35 -5 49
-39 12 -39 12 -28 69 6 35 75 218 106 282 16 33 31 74 34 90 6 46 83 251 106
282 12 16 19 34 15 39 -8 13 7 22 50 32 23 5 32 4 27 -3 -4 -6 2 -8 15 -5 12
4 20 3 17 -2 -2 -4 4 -15 15 -25 27 -25 35 -75 17 -116 -8 -19 -61 -93 -119
-166 -63 -78 -113 -151 -124 -180 -10 -26 -31 -67 -48 -91 -26 -37 -30 -51
-30 -113 -1 -67 1 -72 31 -99 40 -36 106 -47 191 -32 43 7 73 7 92 0 81 -28
152 96 106 184 -8 16 -18 49 -22 75 -14 100 -57 145 -144 151 -33 2 -60 6 -60
8 0 2 38 50 83 107 112 138 131 198 86 276 -29 52 -64 74 -125 79 -50 4 -54 2
-95 -35z m161 5 c39 -27 70 -81 70 -123 -1 -48 -31 -102 -127 -223 -114 -143
-148 -208 -139 -270 3 -25 12 -52 19 -60 9 -11 5 -11 -15 2 -26 17 -28 23 -28
83 0 80 10 100 110 216 43 51 78 94 77 97 -1 3 8 19 21 37 45 64 83 177 52
158 -6 -4 -7 1 -3 11 5 13 3 15 -7 9 -8 -5 -11 -4 -7 3 13 20 -51 62 -94 62
-22 0 -38 -4 -34 -9 8 -14 -35 -25 -47 -13 -15 15 39 41 83 42 21 0 49 -9 69
-22z m-146 -36 c12 -20 -6 -50 -30 -48 -28 1 -29 4 -8 34 16 23 29 28 38 14z
m-24 -65 c0 -2 -9 -21 -20 -44 -10 -22 -29 -76 -40 -119 -24 -87 -24 -89 -38
-80 -14 8 69 246 86 246 6 0 12 -1 12 -3z m-98 -273 c-11 -67 -14 -72 -33 -67
-20 6 -20 12 2 71 11 27 36 24 31 -4z m-32 -87 c0 -2 -8 -21 -19 -43 -10 -21
-31 -79 -47 -129 -32 -101 -32 -101 -40 -92 -4 3 9 53 29 109 51 147 55 158
67 158 5 0 10 -1 10 -3z m310 -10 c19 -3 26 -11 28 -32 3 -21 6 -25 13 -14 7
11 9 10 9 -5 0 -24 -39 -94 -57 -100 -8 -4 -4 10 11 37 20 34 23 48 16 77 l-8
35 -1 -35 c-1 -20 -8 -45 -16 -56 -8 -12 -12 -24 -9 -27 8 -8 -128 -138 -155
-148 -13 -5 -50 -9 -82 -8 -53 2 -59 4 -59 23 0 12 13 48 29 81 32 65 31 65
35 -30 1 -23 6 -31 24 -33 30 -4 62 24 62 55 0 12 -4 23 -9 23 -4 0 -6 -12 -4
-27 3 -20 0 -17 -11 12 -19 50 -20 69 -2 62 27 -11 112 -18 91 -8 -11 5 -31
10 -45 10 -41 2 -57 17 -42 38 7 10 19 33 28 51 15 34 15 34 72 29 31 -3 68
-7 82 -10z m70 -112 c0 -36 -5 -41 -28 -26 -10 6 -11 13 -1 34 17 37 29 34 29
-8z m5 -59 c69 -69 22 -207 -61 -179 -58 19 -70 128 -19 179 30 30 50 30 80 0z
m-112 -37 c-4 -16 -8 -17 -14 -7 -11 17 -11 3 0 -44 5 -22 5 -38 0 -38 -5 0
-9 14 -9 31 0 16 -4 28 -8 25 -12 -7 -5 -75 9 -92 6 -8 15 -12 19 -9 5 3 12 0
16 -6 4 -7 3 -9 -4 -5 -6 3 -14 1 -17 -5 -5 -6 -26 -9 -59 -5 -35 4 -43 3 -26
-3 39 -14 12 -12 -69 3 -40 8 -77 18 -82 23 -15 15 -19 52 -7 59 7 5 8 2 3 -6
-6 -10 -2 -11 19 -6 20 5 26 3 21 -5 -6 -8 4 -9 36 -4 48 8 74 19 74 32 0 4 6
8 12 9 7 1 28 18 46 38 39 41 47 44 40 15z m-382 -72 c-2 -29 -15 -57 -27 -57
-17 0 -17 10 -4 45 9 23 33 32 31 12z m-61 -53 c0 -12 -7 -14 -32 -10 -24 4
-27 4 -13 -3 22 -9 86 -8 103 3 6 3 17 3 26 0 14 -5 14 -8 0 -29 l-15 -23 -79
26 c-62 20 -77 29 -68 39 16 19 78 17 78 -3z m126 -39 c-11 -8 -25 -15 -30
-15 -6 0 -2 7 8 15 11 8 25 15 30 15 6 0 2 -7 -8 -15z"/>
<path d="M2667 433 c-12 -11 -7 -43 6 -43 17 0 37 20 37 37 0 13 -32 18 -43 6z"/>
<path d="M2640 361 c70 -17 104 -21 95 -12 -6 5 -37 12 -70 15 -45 4 -51 3
-25 -3z"/>
<path d="M2791 254 c-25 -32 -27 -74 -6 -114 32 -62 95 -25 95 55 0 77 -49
110 -89 59z m52 -1 c12 -42 16 -109 8 -121 -25 -39 -75 19 -67 76 8 55 48 85
59 45z"/>
<path d="M2691 176 c-24 -28 -97 -49 -148 -42 -40 5 -45 4 -28 -5 10 -7 39
-16 62 -20 37 -7 48 -5 79 16 20 14 33 25 28 25 -4 0 1 6 12 14 10 8 16 17 13
20 -3 4 -12 0 -18 -8z"/>
<path d="M850 924 c0 -21 29 -121 45 -159 8 -16 44 -131 80 -254 58 -194 65
-225 51 -233 -9 -5 -13 -15 -9 -26 6 -15 5 -15 -11 -3 -21 18 -48 -1 -28 -21
9 -9 8 -14 -4 -23 -9 -6 -17 -30 -19 -53 -4 -53 19 -69 106 -72 92 -3 99 -2
93 15 -8 19 -5 19 41 -1 21 -9 34 -10 30 -4 -5 8 3 9 27 5 26 -5 38 -2 51 13
43 48 24 142 -29 142 -14 0 -30 10 -41 26 -15 23 -18 24 -29 10 -11 -15 -44
-13 -44 3 0 3 -7 14 -14 24 -13 17 -17 17 -44 3 l-30 -15 -25 82 c-14 45 -31
101 -38 124 -6 23 -16 40 -20 37 -5 -3 -6 2 -3 10 3 8 -8 58 -24 113 -16 54
-40 137 -53 186 -18 68 -28 87 -41 87 -10 0 -18 -7 -18 -16z m297 -634 c5 -18
17 -24 50 -23 7 1 10 -4 6 -10 -4 -6 0 -8 11 -4 9 4 24 3 34 -2 9 -5 25 -12
35 -15 9 -3 17 -15 17 -26 0 -11 5 -20 10 -20 6 0 10 -9 10 -20 0 -12 -7 -20
-17 -20 -9 0 -13 3 -10 7 14 13 -31 33 -55 24 -14 -5 -31 -5 -39 0 -11 5 -16
4 -16 -5 0 -9 7 -12 16 -8 14 5 14 3 3 -11 -8 -9 -21 -13 -30 -10 -9 3 -15 4
-12 2 36 -30 53 -41 43 -28 -10 12 -10 18 -1 27 16 16 25 15 25 -3 0 -8 -4
-15 -9 -15 -5 0 -7 -4 -3 -9 10 -17 -13 -22 -28 -6 -20 19 -32 19 -51 -1 -9
-8 -16 -11 -16 -5 0 15 -18 14 -23 -1 -2 -7 -3 -5 -2 4 2 9 -2 19 -9 21 -6 2
-8 8 -4 12 5 5 18 0 30 -11 12 -10 18 -13 14 -6 -4 7 -1 15 8 18 9 3 13 10 10
16 -3 5 -11 2 -18 -7 -10 -14 -14 -12 -34 14 -19 27 -25 29 -42 19 -10 -7 -16
-16 -13 -21 3 -5 -1 -13 -8 -18 -10 -6 -11 -9 -1 -9 6 0 12 -10 12 -22 0 -21
-2 -20 -15 6 -25 47 -6 81 45 82 22 1 38 -1 36 -5 -2 -3 0 -15 5 -26 9 -20 9
-20 7 0 -2 11 1 26 6 34 7 10 6 12 -4 6 -8 -5 -11 -4 -6 3 4 6 14 9 24 6 16
-5 16 -5 0 8 -15 13 -15 15 0 25 15 11 15 12 -4 12 -27 1 -51 27 -32 34 26 11
40 7 45 -13z m-77 -6 c0 -8 5 -12 10 -9 6 3 10 1 10 -5 0 -7 -7 -9 -16 -6 -9
3 -18 6 -20 6 -2 0 -4 7 -4 15 0 8 5 15 10 15 6 0 10 -7 10 -16z m40 -38 c0
-8 -8 -17 -17 -20 -30 -8 -103 -4 -109 6 -10 15 4 22 20 9 9 -8 16 -8 20 -2 4
6 13 8 21 5 7 -3 22 -1 32 5 25 14 33 14 33 -3z m-100 -57 c0 -5 -5 -8 -11 -6
-6 1 -14 -4 -17 -12 -3 -8 0 -11 7 -7 7 5 9 1 4 -9 -5 -13 -7 -14 -14 -3 -13
19 -11 46 4 51 15 5 27 -1 27 -14z m74 -30 c-3 -5 -9 -7 -14 -4 -5 3 -12 0
-16 -6 -4 -7 -3 -9 3 -6 6 4 13 -2 16 -13 3 -14 0 -20 -11 -20 -8 0 -12 3 -9
7 4 3 3 11 -2 17 -5 6 -5 21 0 35 8 19 12 21 24 11 8 -7 12 -16 9 -21z m187
-13 c-15 -17 -38 -12 -38 9 0 11 4 12 13 4 8 -7 14 -6 20 2 5 8 3 9 -6 4 -9
-6 -11 -4 -5 4 5 9 10 10 18 2 7 -7 6 -15 -2 -25z m39 -15 c0 -5 -7 -14 -15
-21 -13 -10 -18 -11 -28 -1 -9 10 -8 11 6 6 12 -5 17 -2 17 9 0 9 5 16 10 16
6 0 10 -4 10 -9z"/>
<path d="M1147 253 c-4 -3 -2 -12 4 -19 9 -10 7 -15 -5 -20 -12 -5 -13 -10 -5
-25 5 -11 14 -17 20 -13 6 4 6 10 -1 19 -9 11 -6 12 12 8 13 -3 28 -9 33 -14
6 -4 17 -4 25 1 12 8 10 10 -7 10 -13 0 -23 5 -23 11 0 5 5 7 12 3 7 -5 8 -3
4 5 -5 7 -11 10 -14 7 -3 -3 -11 3 -19 14 -15 21 -25 25 -36 13z"/>
<path d="M464 862 c-88 -56 -101 -160 -24 -205 32 -20 40 -21 40 -7 0 6 -7 10
-16 10 -8 0 -13 4 -10 9 3 5 -2 8 -12 7 -9 0 -16 5 -14 12 1 8 -2 11 -7 8 -12
-8 -21 18 -20 57 l1 32 11 -25 c22 -46 40 -68 53 -63 7 2 27 -9 46 -26 28 -26
31 -32 18 -42 -13 -9 -13 -10 1 -6 20 7 39 -11 39 -34 0 -10 5 -21 12 -25 7
-5 8 -2 3 7 -5 8 -5 11 0 7 4 -4 15 -2 24 4 13 10 14 10 4 -2 -19 -21 -16 -30
11 -30 22 0 51 22 41 31 -2 3 5 5 16 5 18 0 17 -2 -6 -25 -33 -33 -85 -34
-120 -1 -14 13 -23 26 -20 28 3 3 -4 11 -15 19 -11 8 -20 24 -20 36 0 17 -2
19 -9 8 -12 -19 43 -97 82 -118 70 -36 167 39 167 128 0 23 -8 38 -31 58 -40
33 -87 81 -119 121 -32 40 -83 49 -126 22z m77 -3 c11 -5 16 -15 13 -21 -4 -6
-3 -8 3 -5 12 7 35 -14 66 -63 12 -19 32 -37 44 -40 12 -3 31 -17 43 -32 19
-25 20 -29 6 -56 -33 -64 -141 -67 -153 -5 -2 10 -5 24 -7 32 -4 19 -47 51
-70 51 -27 0 -56 29 -56 54 0 12 9 36 20 54 18 28 23 32 36 21 8 -7 14 -8 13
-3 -5 26 9 31 42 13z"/>
<path d="M1190 795 c0 -8 7 -15 15 -15 8 0 15 7 15 15 0 8 -7 15 -15 15 -8 0
-15 -7 -15 -15z"/>
<path d="M2010 810 c-1 -3 -3 -15 -4 -27 -4 -31 -13 -38 -30 -24 -15 13 -36 7
-36 -9 0 -5 8 -11 18 -13 15 -4 15 -5 -1 -6 -11 -1 -21 7 -24 19 -6 22 -18 26
-29 8 -5 -7 -3 -8 6 -3 9 5 11 4 6 -3 -4 -7 -14 -12 -22 -12 -8 0 -14 -5 -14
-11 0 -6 -10 -19 -22 -29 -20 -16 -21 -20 -9 -60 7 -23 15 -48 17 -55 3 -8 -4
-16 -17 -20 -30 -10 -91 -47 -85 -52 2 -3 24 7 49 21 46 27 82 32 107 16 13
-9 13 -11 0 -20 -8 -5 -20 -10 -26 -10 -6 0 -22 -9 -36 -19 -23 -19 -28 -19
-68 -5 l-43 15 -33 -33 -32 -33 42 -12 c22 -7 58 -13 78 -13 21 0 56 -7 77
-16 l40 -16 59 41 c52 37 64 41 117 41 59 0 187 30 238 56 26 14 27 17 21 72
-6 56 -28 102 -54 110 -8 3 -10 0 -5 -8 5 -9 4 -11 -4 -6 -9 6 -9 11 0 22 10
12 9 18 -4 31 -13 13 -19 14 -31 3 -13 -10 -16 -10 -16 4 0 9 -8 16 -20 16
-28 0 -25 -27 4 -34 13 -3 31 -17 40 -31 l16 -25 -34 0 c-19 0 -38 -4 -41 -10
-9 -15 40 -12 80 4 18 8 35 12 38 10 2 -3 3 -26 1 -52 -3 -44 -2 -45 6 -12 l9
35 -2 -42 c-2 -24 2 -45 8 -47 18 -7 -12 -28 -67 -47 -75 -25 -77 -22 -93 119
-4 34 -2 52 4 48 9 -6 41 19 41 33 0 8 -81 31 -111 31 -16 0 -18 2 -7 14 7 7
19 11 25 9 7 -3 13 1 13 8 0 7 -3 9 -7 6 -3 -4 -14 0 -24 9 -24 21 -53 11 -46
-16 9 -34 -42 -16 -56 20 -3 8 -6 13 -7 10z m100 -25 c0 -8 -7 -15 -15 -15
-26 0 -18 20 13 29 1 1 2 -6 2 -14z m-40 -35 c19 -6 53 -13 74 -15 42 -4 76
-28 57 -39 -6 -4 -11 -3 -11 2 0 5 -9 12 -20 15 -24 6 -50 -17 -50 -44 0 -15
-7 -19 -31 -19 -16 0 -28 4 -25 8 3 5 -19 7 -49 6 -46 -2 -55 0 -55 14 0 11
-3 13 -8 6 -9 -15 -62 -15 -62 -1 0 6 8 20 18 31 16 20 16 20 0 7 -11 -8 -18
-9 -18 -3 0 16 22 20 47 9 17 -7 28 -5 50 11 33 25 37 25 83 12z m-202 -62
c-2 -7 13 -17 32 -24 29 -9 31 -13 15 -17 -20 -5 -20 -5 0 -5 11 -1 40 3 65 8
25 4 49 5 55 2 5 -4 -8 -10 -30 -13 -28 -4 -12 -7 52 -8 52 0 94 3 98 9 9 15
25 12 25 -5 0 -21 -59 -29 -153 -21 -92 8 -164 24 -173 38 -4 6 3 8 17 4 22
-7 23 -6 4 5 -28 17 -28 16 -20 28 8 15 16 14 13 -1z m300 -10 c-16 -24 -30
-27 -36 -9 -2 6 7 15 20 20 32 13 32 14 16 -11z m-215 -83 c44 -13 76 -15 128
-10 38 4 72 11 75 16 12 20 23 7 17 -22 -4 -22 0 -38 15 -58 l20 -28 -66 -1
c-36 -1 -78 -4 -92 -7 -17 -3 -34 2 -53 17 -16 13 -41 33 -57 46 -15 12 -33
22 -39 22 -11 0 -31 32 -31 51 0 8 4 8 13 1 6 -5 38 -18 70 -27z m17 -95 c0
-4 -21 -18 -47 -31 -42 -21 -57 -24 -123 -19 -43 3 -74 9 -72 15 2 6 10 9 18
7 9 -2 21 1 28 7 9 8 18 7 32 -3 16 -12 24 -12 52 0 18 7 39 20 47 27 14 14
65 12 65 -3z m38 -18 c8 -6 -4 -19 -39 -44 -46 -32 -55 -35 -78 -25 -41 17
-47 26 -15 23 32 -4 56 6 85 35 21 21 28 23 47 11z m-200 -49 c-10 -2 -28 -2
-40 0 -13 2 -5 4 17 4 22 1 32 -1 23 -4z"/>
<path d="M1983 714 c-8 -22 18 -37 36 -20 7 8 10 19 7 25 -10 16 -36 13 -43
-5z m37 -4 c0 -5 -7 -10 -15 -10 -8 0 -15 5 -15 10 0 6 7 10 15 10 8 0 15 -4
15 -10z"/>
<path d="M2043 709 c-1 -11 2 -19 8 -19 5 0 9 5 9 11 0 6 7 8 16 5 8 -3 13 -2
10 3 -3 5 -14 11 -24 13 -12 4 -18 -1 -19 -13z"/>
<path d="M1137 763 c-4 -3 -7 -14 -7 -24 0 -9 -9 -19 -20 -22 -29 -7 -26 -39
3 -35 14 2 21 9 19 19 -2 12 4 15 22 12 18 -4 26 0 31 16 3 11 3 25 0 31 -7
11 -38 13 -48 3z m38 -13 c3 -6 -1 -13 -10 -16 -19 -8 -30 0 -20 15 8 14 22
14 30 1z"/>
<path d="M1205 750 c-3 -5 -4 -19 0 -29 6 -21 -16 -43 -48 -47 -60 -8 -71 -11
-75 -22 -2 -7 1 -12 6 -12 5 0 12 -23 16 -51 5 -39 12 -52 26 -56 11 -3 20
-11 20 -19 0 -22 22 -28 35 -10 11 14 13 15 19 1 7 -20 40 -19 57 1 9 11 10
20 2 32 -14 23 -52 28 -59 8 -3 -9 -17 -16 -30 -16 -17 0 -22 4 -18 15 4 8 11
15 16 15 6 0 23 11 40 25 16 14 36 25 44 25 8 0 19 11 26 25 9 19 8 29 -6 50
-9 14 -20 25 -25 25 -4 0 -7 10 -7 22 1 24 -27 37 -39 18z m62 -94 c-10 -25
-36 -30 -57 -11 -17 15 -18 51 -1 41 4 -3 13 -1 21 4 19 12 45 -13 37 -34z
m-66 -18 c6 -10 8 -24 5 -31 -2 -7 -5 -3 -6 8 -2 17 -3 16 -9 -5 -7 -27 -48
-43 -68 -27 -7 5 -13 21 -13 35 0 14 3 22 7 19 3 -4 12 2 20 12 16 23 49 17
64 -11z m52 -102 c7 -18 -1 -26 -25 -26 -18 0 -25 20 -11 33 11 12 31 8 36 -7z"/>
<path d="M2257 605 c3 -27 9 -57 14 -65 10 -19 -1 67 -12 95 -4 12 -5 -1 -2
-30z"/>
<path d="M2278 607 c2 -23 7 -45 11 -49 3 -4 5 12 3 35 -2 23 -7 45 -11 49 -3
4 -5 -12 -3 -35z"/>
<path d="M2301 613 c-1 -23 3 -44 7 -47 4 -2 6 12 4 32 -5 56 -10 62 -11 15z"/>
<path d="M2208 592 c2 -26 7 -50 11 -54 3 -4 4 14 3 40 -2 26 -7 50 -11 54 -3
4 -4 -14 -3 -40z"/>
<path d="M2231 614 c1 -16 5 -40 9 -54 6 -17 7 -9 3 25 -6 56 -14 74 -12 29z"/>
<path d="M1247 594 c-8 -8 1 -24 14 -24 5 0 9 7 9 15 0 15 -12 20 -23 9z"/>
<path d="M770 519 c0 -8 -12 -10 -35 -6 -27 5 -35 2 -35 -10 0 -12 -3 -13 -14
-4 -12 10 -15 8 -18 -10 -2 -15 -11 -23 -27 -26 -14 -2 -27 -6 -30 -8 -10 -10
-10 -64 0 -70 6 -4 7 -29 3 -67 -5 -42 -4 -59 4 -54 6 4 8 -2 4 -16 -4 -16 -2
-19 8 -13 8 5 11 4 7 -2 -9 -14 19 -92 40 -115 42 -47 177 -42 209 7 20 30 42
114 50 190 4 33 11 65 16 72 5 7 7 20 4 30 -7 23 -62 57 -80 50 -8 -3 -24 4
-37 16 -13 12 -31 20 -41 19 -13 -2 -16 1 -12 12 3 9 1 16 -5 16 -6 0 -11 -5
-11 -11z m27 -34 c12 -4 25 -16 28 -26 7 -21 25 -25 42 -8 7 7 20 9 30 5 15
-6 15 -8 3 -16 -12 -8 -11 -10 5 -11 13 0 7 -5 -17 -14 -24 -9 -71 -13 -138
-11 -61 2 -103 -1 -107 -7 -4 -6 2 -8 15 -5 12 4 20 2 16 -3 -3 -5 40 -9 101
-9 68 0 104 4 100 10 -9 14 8 13 23 -2 9 -9 12 -8 12 6 0 9 5 14 10 11 6 -3
10 2 10 12 0 15 2 16 10 3 7 -11 5 -19 -10 -32 -21 -17 -28 -34 -10 -23 13 8
13 15 -10 -93 -11 -50 -21 -99 -23 -109 -5 -31 -15 -40 -63 -52 -61 -15 -154
8 -154 39 0 18 2 18 33 5 30 -12 38 -12 68 3 19 9 34 22 34 27 0 6 -30 13 -67
16 -38 3 -71 9 -74 12 -8 8 -36 149 -31 154 2 2 18 -4 36 -13 25 -13 54 -15
127 -12 52 2 94 2 94 1 0 -18 -37 -85 -61 -109 -20 -21 -27 -34 -19 -39 6 -4
18 -1 26 6 26 21 66 98 60 115 -3 8 -2 12 4 9 12 -7 13 25 2 42 -5 8 -13 9
-22 3 -21 -13 -148 -12 -210 1 -52 11 -72 31 -51 52 8 8 11 8 11 -1 0 -7 5
-12 11 -12 5 0 7 6 3 13 -4 6 -3 9 1 4 5 -4 14 6 21 23 14 31 44 41 44 14 0
-8 5 -12 11 -8 8 4 8 9 0 17 -6 6 -11 14 -11 18 0 9 54 5 87 -6z m-59 -295
c17 0 32 -5 32 -11 0 -15 -88 -6 -103 11 -10 10 -7 11 13 6 14 -3 40 -6 58 -6z"/>
<path d="M747 474 c-3 -3 -3 -12 0 -20 6 -16 33 -19 33 -3 0 5 -4 7 -10 4 -6
-3 -7 1 -4 9 6 16 -7 22 -19 10z"/>
<path d="M806 442 c-3 -6 -1 -14 5 -17 15 -10 25 3 12 16 -7 7 -13 7 -17 1z"/>
<path d="M1145 480 c-4 -6 -3 -16 3 -22 6 -6 12 -6 17 2 4 6 3 16 -3 22 -6 6
-12 6 -17 -2z"/>
<path d="M1940 341 c-47 -10 -96 -36 -104 -56 -3 -9 -6 -32 -6 -51 0 -27 -4
-34 -20 -34 -11 0 -20 -5 -20 -10 0 -6 17 -10 38 -9 20 1 46 -2 56 -6 14 -6
17 -5 12 3 -4 7 -14 12 -21 12 -21 0 -37 37 -29 63 5 12 7 27 5 32 -1 6 1 7 5
2 4 -4 16 0 26 9 10 10 39 19 65 21 41 4 50 2 61 -17 13 -21 12 -22 -12 -16
-59 14 -79 15 -41 2 34 -12 36 -15 14 -15 -15 -1 -32 -8 -39 -16 -16 -19 -34
-19 -50 0 -7 9 -15 13 -18 10 -3 -3 3 -12 14 -20 16 -13 16 -14 2 -9 -36 12
-17 -14 21 -29 40 -16 99 -20 215 -12 55 3 74 8 90 26 20 21 21 22 1 15 -17
-5 -18 -4 -5 7 8 7 21 19 29 27 11 13 12 12 2 -7 -8 -16 -8 -22 1 -25 21 -7
-10 -45 -53 -62 -62 -25 -145 -30 -211 -13 -37 9 -60 11 -66 5 -6 -6 -17 -6
-30 1 -14 8 -24 7 -38 -5 -18 -14 -18 -15 2 -5 12 6 25 7 30 2 14 -12 88 -31
123 -31 19 0 30 -4 26 -10 -3 -5 -2 -10 4 -10 5 0 13 4 16 10 10 16 28 12 21
-5 -3 -8 -1 -15 4 -15 6 0 10 7 10 15 0 8 5 15 10 15 6 0 10 -4 10 -10 0 -5 5
-10 11 -10 5 0 7 5 4 10 -4 7 3 8 21 4 19 -5 25 -4 20 4 -5 8 -2 10 8 6 9 -3
16 -2 16 4 0 6 -6 13 -12 15 -7 3 1 4 17 4 19 -1 29 3 28 10 -2 7 3 10 11 7
30 -11 48 74 26 116 -17 31 -111 60 -193 59 -40 -1 -88 -4 -107 -8z m200 -20
c0 -19 -77 -29 -114 -15 -35 13 -13 24 49 24 36 0 65 -4 65 -9z m51 -21 c10
-6 19 -17 19 -25 0 -17 -49 -45 -82 -46 -23 -1 -23 -1 2 -9 14 -4 -8 -5 -50
-2 -41 2 -92 0 -112 -6 -46 -13 -51 0 -6 13 17 6 33 17 36 25 3 13 2 13 -7 0
-5 -8 -13 -11 -17 -8 -3 4 -20 0 -36 -8 -17 -9 -32 -13 -34 -11 -4 4 53 31 66
32 3 0 10 3 15 6 17 11 71 20 57 11 -14 -9 -8 -11 74 -26 17 -3 12 0 -11 8
l-40 13 36 7 c21 3 42 13 49 21 15 18 16 18 41 5z"/>
</g>
</svg>
